#!OML:ASF H:\Terrain\Patient Classification 1\Takeo\Monday\TakeoMonday.ASF
:FULLY-SPECIFIED
:DEGREES
904
root 5.73864 17.3976 3.31729 -325.136 89.7837 -324.014
lowerback 13.467 -1.95734 2.43033
upperback 5.74379 -2.09524 -3.58023
thorax -1.72307 -0.852798 -4.81985
lowerneck -10.3757 -8.64963 -3.83895
upperneck -6.45449 -10.7814 7.44292
head 0.363855 -5.16337 2.5954
rclavicle -2.40529e-014 -2.14687e-014
rhumerus -22.2929 0.470051 -77.1098
rradius 60.6461
rwrist -3.13212
rhand -45.9191 40.0385
rfingers 7.12502
rthumb -18.6679 10.9142
lclavicle -2.40529e-014 -2.14687e-014
lhumerus -27.6713 -16.7921 88.9447
lradius 80.9977
lwrist 34.7453
lhand -37.6597 25.8169
lfingers 7.12502
lthumb -10.711 55.5239
rfemur -12.3744 8.32475 21.0836
rtibia 35.2714
rfoot -20.4166 -12.4906
rtoes 7.36616
lfemur -9.05625 2.58103 -7.27389
ltibia 40.0338
lfoot -12.6931 21.4151
ltoes 13.5073
905
root 5.75654 17.408 3.3077 -326.925 89.3767 -325.909
lowerback 13.2045 -1.7778 2.12826
upperback 5.56872 -1.91145 -3.42292
thorax -1.73345 -0.776258 -4.51063
lowerneck -10.0232 -8.75209 -4.5873
upperneck -6.65467 -10.8433 7.93427
head 0.32364 -5.18496 2.90183
rclavicle -2.18663e-015 0
rhumerus -22.3127 1.44029 -77.6482
rradius 61.0274
rwrist -3.14859
rhand -46.1129 39.5192
rfingers 7.12502
rthumb -18.8543 10.413
lclavicle -2.18663e-015 0
lhumerus -27.4865 -17.4677 89.7669
lradius 80.718
lwrist 34.818
lhand -38.155 26.7035
lfingers 7.12502
lthumb -11.1888 56.3851
rfemur -12.4156 8.61545 20.8026
rtibia 35.1562
rfoot -20.4368 -12.3747
rtoes 7.19499
lfemur -9.32589 1.93426 -7.68315
ltibia 40.3327
lfoot -12.2739 19.3599
ltoes 11.5375
906
root 5.77454 17.4143 3.29436 -370.685 89.0265 -369.595
lowerback 13.0995 -1.63653 2.6204
upperback 5.45737 -1.67478 -3.07595
thorax -1.77405 -0.665145 -4.46046
lowerneck -9.89198 -8.9068 -5.39113
upperneck -6.59106 -10.9839 8.3333
head 0.409346 -5.23994 3.17066
rclavicle -1.78906e-015 -1.11319e-014
rhumerus -22.305 2.37083 -78.2505
rradius 61.342
rwrist -3.34634
rhand -46.3365 39.7396
rfingers 7.12502
rthumb -19.0693 10.6545
lclavicle -1.78906e-015 -1.11319e-014
lhumerus -27.5137 -18.2533 90.6544
lradius 80.6565
lwrist 34.7452
lhand -37.4599 26.8057
lfingers 7.12502
lthumb -10.5183 56.5225
rfemur -12.2785 8.94955 21.3653
rtibia 35.1653
rfoot -20.4931 -12.2921
rtoes 6.73023
lfemur -9.22194 1.49915 -7.29378
ltibia 40.217
lfoot -11.3444 17.266
ltoes 7.39138
907
root 5.80562 17.4262 3.27671 -350.497 88.6014 -349.114
lowerback 13.1128 -1.58566 2.40447
upperback 5.38571 -1.6409 -3.24541
thorax -1.85227 -0.652443 -4.52068
lowerneck -9.84716 -8.82788 -4.91804
upperneck -6.50381 -10.9375 7.85773
head 0.364028 -5.23182 2.93243
rclavicle -1.39149e-014 -1.19271e-014
rhumerus -22.3532 3.40709 -79.4326
rradius 61.5576
rwrist -3.7208
rhand -46.4508 39.9461
rfingers 7.12502
rthumb -19.1792 10.8718
lclavicle -1.39149e-014 -1.19271e-014
lhumerus -27.854 -18.9731 91.0488
lradius 80.7548
lwrist 34.6663
lhand -36.4029 26.631
lfingers 7.12502
lthumb -9.4986 56.3969
rfemur -11.7339 9.05954 20.8652
rtibia 34.9396
rfoot -20.4995 -11.9219
rtoes 6.39907
lfemur -8.95625 1.10271 -8.08975
ltibia 40.2586
lfoot -10.1628 15.7568
ltoes 0.423588
908
root 5.85617 17.4459 3.25023 -303.171 86.8338 -300.887
lowerback 13.4592 -1.5538 0.171354
upperback 5.56305 -1.85006 -3.99559
thorax -1.82973 -0.754626 -4.00617
lowerneck -10.0616 -8.55873 -4.52041
upperneck -6.31788 -10.6208 7.47453
head 0.39043 -5.07937 2.74166
rclavicle -1.88845e-014 -2.8625e-014
rhumerus -22.216 4.5322 -80.665
rradius 61.6936
rwrist -3.58917
rhand -46.4817 39.2179
rfingers 7.12502
rthumb -19.2089 10.1465
lclavicle -1.88845e-014 -2.8625e-014
lhumerus -27.8983 -19.3822 91.2768
lradius 80.7347
lwrist 34.7335
lhand -36.2679 26.4032
lfingers 7.12502
lthumb -9.36829 56.175
rfemur -10.4599 8.80084 18.1046
rtibia 34.7001
rfoot -20.3608 -11.2859
rtoes 5.20859
lfemur -7.86018 0.000629567 -11.3281
ltibia 40.1448
lfoot -10.0691 14.7297
ltoes -1.86533
